HIERARCHY
ROOT Hips
{
  OFFSET 38.9364 92.4223 -323.81
  CHANNELS 6 Xposition Yposition Zposition Zrotation Xrotation Yrotation
  JOINT ToSpine
  {
    OFFSET -0.0105055 1.38907 -7.13956
    CHANNELS 3 Zrotation Xrotation Yrotation
    JOINT Spine
    {
      OFFSET 0.0105055 10 1
      CHANNELS 3 Zrotation Xrotation Yrotation
      JOINT Spine1
      {
        OFFSET 0 12 1.60637
        CHANNELS 3 Zrotation Xrotation Yrotation
        JOINT Neck
        {
          OFFSET 0 27 2.26658
          CHANNELS 3 Zrotation Xrotation Yrotation
          JOINT Head
          {
            OFFSET 0 9 2.12705
            CHANNELS 3 Zrotation Xrotation Yrotation
            End Site
            {
              OFFSET 0 11 2
            }
          }
        }
        JOINT LeftShoulder
        {
          OFFSET 8 19.6109 2.86452
          CHANNELS 3 Zrotation Xrotation Yrotation
          JOINT LeftArm
          {
            OFFSET 12 1 0.681055
            CHANNELS 3 Zrotation Xrotation Yrotation
            JOINT LeftForeArm
            {
              OFFSET 19 0 -1.52608
              CHANNELS 3 Zrotation Xrotation Yrotation
              JOINT LeftHand
              {
                OFFSET 23 0 0
                CHANNELS 3 Zrotation Xrotation Yrotation
                End Site
                {
                  OFFSET 10 0 0
                }
              }
            }
          }
        }
        JOINT RightShoulder
        {
          OFFSET -8 19.6109 2.86452
          CHANNELS 3 Zrotation Xrotation Yrotation
          JOINT RightArm
          {
            OFFSET -12 1 0.681055
            CHANNELS 3 Zrotation Xrotation Yrotation
            JOINT RightForeArm
            {
              OFFSET -19 0 -1.52608
              CHANNELS 3 Zrotation Xrotation Yrotation
              JOINT RightHand
              {
                OFFSET -23 0 0
                CHANNELS 3 Zrotation Xrotation Yrotation
                End Site
                {
                  OFFSET -10 0 0
                }
              }
            }
          }
        }
      }
    }
  }
  JOINT LeftUpLeg
  {
    OFFSET 9 -7.17245 0
    CHANNELS 3 Zrotation Xrotation Yrotation
    JOINT LeftLeg
    {
      OFFSET 0 -44.1113 0
      CHANNELS 3 Zrotation Xrotation Yrotation
      JOINT LeftFoot
      {
        OFFSET 0 -36.1829 0
        CHANNELS 3 Zrotation Xrotation Yrotation
        JOINT LeftToeBase
        {
          OFFSET 0 -4.84184 13
          CHANNELS 3 Zrotation Xrotation Yrotation
          End Site
          {
            OFFSET 0 1 6
          }
        }
      }
    }
  }
  JOINT RightUpLeg
  {
    OFFSET -9 -7.17245 0
    CHANNELS 3 Zrotation Xrotation Yrotation
    JOINT RightLeg
    {
      OFFSET 0 -44.0551 0
      CHANNELS 3 Zrotation Xrotation Yrotation
      JOINT RightFoot
      {
        OFFSET 0 -36.1469 0
        CHANNELS 3 Zrotation Xrotation Yrotation
        JOINT RightToeBase
        {
          OFFSET 0 -4.92256 13
          CHANNELS 3 Zrotation Xrotation Yrotation
          End Site
          {
            OFFSET 0 1 6
          }
        }
      }
    }
  }
}
MOTION
Frames:	10
Frame Time:	0.0333333
38.9364 92.4223 -323.81 -0.445912 -2.46906 -1.18544 0 0 0 -6.24901 3.26321 -2.9589 2.48509 2.09995 -3.01243 17.0721 0.28757 -0.632517 -4.9524 -6.59531 5.3833 -28.5787 3.95185 -7.86395 -35.3801 7.42441 -37.2628 1.39133 2.08488 -17.14 -7.28031 0.290899 -4.57016 29.6704 6.36596 14.1873 49.979 6.65948 -9.36083 2.1483 -1.76507 9.84234 4.53585 0.055488 1.40102 -1.71131 21.7967 11.7767 -3.37347 14.6313 -19.5243 18.0137 -27.0217 4.3622 0.864957 -7.95814 -1.97827 4.98146 -23.0837 0.738827 5.49904 4.94191 6.47216 -36.0602 27.1259 8.9798 -2.04502 -54.9366 -43.5382 
38.8752 92.9203 -322.401 -1.75779 -2.27058 -1.3436 0 0 0 -4.75097 2.90522 -2.87679 3.14979 3.35663 -3.30766 16.2879 -0.44802 -0.415229 -4.40894 -6.22671 5.17491 -28.9277 3.8913 -7.58225 -35.7994 8.02182 -36.956 1.27073 1.82121 -16.8692 -7.56019 0.304846 -4.61144 29.3174 6.19943 13.8971 50.3532 6.61555 -9.2062 2.37205 -2.18043 8.6937 4.33417 0.1067 2.81913 -0.858249 23.8766 11.4717 -2.98504 11.1107 -19.1731 15.0844 -24.4532 3.28681 0.887396 -9.77459 -1.53481 6.93422 -22.9862 2.11573 4.58295 6.29232 3.44893 -32.842 24.8792 7.43919 3.51235 -49.1895 -30.6146 
38.8547 94.0289 -318.961 -4.12946 -2.16791 -1.37148 0 0 0 -1.80755 2.45759 -2.8809 4.1046 4.44566 -3.82581 14.8383 -0.602093 0.0106637 -3.98952 -5.54021 5.08926 -30.4882 3.94618 -7.26798 -35.3357 10.8088 -35.2504 0.544398 0.932511 -14.7499 -7.68934 0.333578 -4.96064 29.064 6.03861 13.5697 50.3939 6.25263 -9.22099 2.32017 -0.929561 6.96721 5.43109 0.0429762 0.906065 1.16344 26.827 11.0417 -2.09338 7.63051 -18.3751 9.28791 -20.0511 1.64547 1.09534 -12.818 -1.84471 10.1466 -23.2322 4.21672 3.03157 11.6249 -1.71737 -25.4022 19.1965 4.36533 6.98319 -36.2692 -14.9127 
38.6592 94.6088 -314.862 -5.79541 -2.35594 -1.68058 0 0 0 0.0810293 1.63713 -2.80089 4.74972 4.94028 -3.96163 13.8803 0.0405116 0.237197 -4.02112 -5.27495 5.1191 -30.811 3.9854 -7.28075 -36.1271 13.8419 -32.8026 -0.74773 0.44595 -10.8438 -8.4186 0.33865 -4.59885 28.5924 5.98269 13.6356 50.8672 5.57765 -9.57186 2.57948 -2.34543 5.3781 4.66702 0.0808408 1.98363 3.2957 27.204 11.2145 -1.39888 11.2531 -18.5664 3.28587 -17.9196 0.518204 1.96697 -14.6749 -8.68342 12.4452 -23.5379 4.04079 2.08469 19.2142 -2.31855 -21.5184 12.5195 2.38815 6.10415 -23.6895 -4.17623 
38.7659 95.2582 -310.736 -6.18135 -2.92668 -1.10178 0 0 0 1.30949 1.74161 -3.12446 4.63069 4.67548 -4.33824 12.8604 -0.142118 0.583906 -3.98374 -3.82195 5.16421 -30.6236 3.87918 -7.04755 -36.4371 18.1659 -31.482 -3.14301 -1.19351 -4.71525 -9.73654 0.335761 -3.9406 27.8573 5.76803 13.3723 51.3023 4.73399 -9.29966 2.24351 -1.46357 5.21892 5.49718 0.0743978 1.54958 4.89668 24.2205 10.8217 -0.420886 21.2593 -19.3104 1.7732 -12.3813 0.192353 1.89708 -20.986 -8.2862 12.2702 -22.7347 0.145788 0.877585 25.1385 -0.681503 -17.3392 6.0112 0.917399 3.66474 -13.6122 -1.92049 
38.6564 95.6647 -306.707 -5.88692 -4.21048 -0.962518 0 0 0 1.42716 2.41317 -2.79463 4.16185 4.34918 -3.94381 12.7511 0.469462 0.197395 -4.22374 -3.84784 4.86321 -29.9192 3.92021 -7.36357 -38.1835 20.4652 -30.3559 -5.56313 0.245831 2.69223 -7.58464 0.1131 -1.70613 28.1599 5.93193 13.6984 50.996 4.10225 -9.38405 2.06543 -2.20066 6.24947 5.55939 0.0778643 1.6036 6.69947 19.926 11.5957 -6.71632e-007 35.0645 -22.5831 4.72635 -5.88296 0.242995 1.95904 -17.7382 -8.85951 11.8416 -19.8671 -2.05103 0.0363589 28.3443 0.761262 -17.8252 1.38525 0.217247 3.90917 -14.5648 -2.07305 
38.3237 96.3676 -302.915 -6.11319 -5.32386 -1.81742 0 0 0 1.76736 3.48876 -2.00005 4.08212 3.89168 -3.27135 11.2736 0.617227 0.46534 -3.53748 -3.86284 4.56164 -31.1221 3.94939 -7.09554 -37.8051 22.8707 -28.0261 -7.45969 0.137795 4.55357 -7.36762 0.0719995 -1.11826 27.9132 5.95876 13.8954 50.1963 4.47529 -7.97756 1.82734 -1.14526 7.3146 6.33245 0.061059 1.10376 9.30418 14.5933 12.826 -2.09416e-007 47.43 -25.9199 5.3052 3.23779 -0.150046 0.70972 -5.78364 -1.73377 12.1247 -15.0484 -3.75675 0.139196 26.752 2.71832 -22.3009 0.973398 0.191868 4.71074 -17.9101 -3.72945 
38.1779 96.8201 -299.876 -6.72745 -5.01419 -1.1206 0 0 0 3.42268 3.74909 -1.76384 3.012 3.32652 -2.80079 10.9702 0.838341 -0.125788 -3.63085 -4.50941 3.90749 -31.2944 3.95165 -7.05322 -39.0769 23.0013 -25.5359 -8.48554 1.35006 4.54461 -9.18448 0.130929 -1.62994 27.0973 5.73266 13.6373 50.4448 6.17562 -5.66059 1.8263 -0.285675 8.50953 5.12036 0.0859065 1.92109 11.8905 6.55831 11.817 -1.1381e-006 58.7448 -22.2555 3.76881 2.7041 -0.088984 1.03416 -5.53409 -3.4863 12.7858 -12.6625 -3.99142 0.312202 25.6308 2.08567 -22.8219 -0.31257 -0.0630873 4.84385 -18.6045 -4.55368 
38.0666 97.4084 -297.303 -6.46114 -4.77202 0.017183 0 0 0 4.35372 4.44195 -1.58453 1.50115 2.58737 -2.12139 11.7001 1.32848 -1.02056 -4.23454 -4.96966 3.39182 -30.9661 3.97004 -7.195 -40.89 21.9417 -21.1007 -7.75354 1.38538 4.55285 -7.72668 0.0655593 -0.970789 28.0212 6.00779 13.9834 49.2323 7.26367 -3.68818 2.07189 -1.49261 9.55332 3.28173 0.0930009 3.24565 12.5529 -1.31131 10.9004 2.67432e-006 66.101 -18.5762 9.84847 -2.42861 0.209271 0.931414 -5.40843 -2.97915 12.3691 -10.6748 -4.27377 0.792817 24.6055 -0.386751 -20.0875 -2.98132 -0.528151 4.31846 -16.1646 -2.2042 
38.0725 97.9743 -294.321 -5.40541 -5.25944 0.220559 0 0 0 4.42665 5.22041 -0.988667 0.27415 2.58046 -1.19778 10.8248 1.33483 -1.42521 -3.97434 -4.7109 2.67786 -32.0095 3.8827 -6.67663 -40.3471 22.9185 -15.9408 -6.35988 -2.05968 4.46333 -8.6861 0.0938574 -1.2358 27.5664 5.92594 13.9715 48.5818 9.7504 -0.350331 3.01058 -3.94384 9.5236 0.930339 0.0319677 3.93588 11.5296 -6.91799 10.4055 1.27916e-006 68.4553 -13.5173 14.4247 -6.83318 0.865736 0.706763 -5.81438 -1.70986 11.0582 -6.55261 -3.09518 1.70559 21.6393 -0.4152 -22.9783 -3.0839 -0.626964 4.68372 -17.8966 -4.35091 
